<?xml version="1.0" encoding="UTF-8" standalone="no"?>
<!-- Created with Inkscape (http://www.inkscape.org/) -->

<svg
   xmlns:dc="http://purl.org/dc/elements/1.1/"
   xmlns:cc="http://creativecommons.org/ns#"
   xmlns:rdf="http://www.w3.org/1999/02/22-rdf-syntax-ns#"
   xmlns:svg="http://www.w3.org/2000/svg"
   xmlns="http://www.w3.org/2000/svg"
   xmlns:sodipodi="http://sodipodi.sourceforge.net/DTD/sodipodi-0.dtd"
   xmlns:inkscape="http://www.inkscape.org/namespaces/inkscape"
   width="26.987551mm"
   height="33.478157mm"
   viewBox="0 0 26.987551 33.478157"
   version="1.1"
   id="svg8"
   sodipodi:docname="favicon.svg"
   inkscape:version="0.92.2 (5c3e80d, 2017-08-06)">
  <defs
     id="defs2" />
  <sodipodi:namedview
     id="base"
     pagecolor="#ffffff"
     bordercolor="#666666"
     borderopacity="1.0"
     inkscape:pageopacity="0.0"
     inkscape:pageshadow="2"
     inkscape:zoom="0.98994949"
     inkscape:cx="292.35289"
     inkscape:cy="-204.37178"
     inkscape:document-units="mm"
     inkscape:current-layer="layer1"
     showgrid="false"
     inkscape:window-width="1920"
     inkscape:window-height="1017"
     inkscape:window-x="-8"
     inkscape:window-y="-8"
     inkscape:window-maximized="1" />
  <metadata
     id="metadata5">
    <rdf:RDF>
      <cc:Work
         rdf:about="">
        <dc:format>image/svg+xml</dc:format>
        <dc:type
           rdf:resource="http://purl.org/dc/dcmitype/StillImage" />
        <dc:title></dc:title>
      </cc:Work>
    </rdf:RDF>
  </metadata>
  <g
     inkscape:label="Layer 1"
     inkscape:groupmode="layer"
     id="layer1"
     transform="translate(-72.344046,-188.50585)">
    <g
       id="g864"
       transform="translate(-94.078874,-6.1471991)">
      <path
         style="fill:#9ce6ec;stroke-width:0.26458332"
         d="m 174.6201,228.00081 c -3.97768,-0.42131 -7.26932,-1.79018 -7.54512,-3.13774 -0.0808,-0.39489 -0.2606,-1.14852 -0.3995,-1.67473 -0.59882,-2.26846 -0.0171,-5.2502 1.67583,-8.59037 0.86359,-1.70383 3.52607,-5.59772 5.20003,-7.60507 1.52534,-1.82913 1.86742,-2.96619 1.86742,-6.20731 0,-2.01935 -0.0755,-2.42369 -0.52917,-2.83426 -0.65271,-0.59069 -0.68629,-1.76388 -0.0661,-2.31043 1.01875,-0.89785 5.70504,-1.30008 8.26823,-0.70968 1.31449,0.30278 2.38125,1.13691 2.38125,1.86198 0,0.25817 -0.29765,0.79059 -0.66146,1.18313 -0.58005,0.62589 -0.66145,0.9516 -0.66145,2.64645 0,2.63892 0.42101,4.38837 1.34366,5.58338 0.42702,0.55307 1.61608,2.07715 2.64235,3.38684 2.84489,3.63052 5.2744,8.96918 5.2744,11.59003 0,0.41978 -0.25038,1.58755 -0.5564,2.59505 -0.49951,1.64453 -0.6709,1.89893 -1.67644,2.48821 -2.04473,1.19829 -4.8216,1.7112 -9.92815,1.83381 -2.55203,0.0613 -5.53523,0.0166 -6.62933,-0.0993 z m 2.63119,-21.29467 c 0.22602,-0.27234 0.23002,-0.42265 0.0148,-0.55566 -0.16226,-0.10029 -0.3208,-0.14066 -0.3523,-0.0897 -0.0315,0.051 -0.21674,0.301 -0.41166,0.55567 -0.30058,0.39269 -0.29413,0.46302 0.0425,0.46302 0.21828,0 0.53629,-0.168 0.7067,-0.37332 z m 5.31122,-4.83786 c 0,-2.49082 -0.0459,-2.75633 -0.46303,-2.67651 -0.39753,0.0761 -0.47381,0.4597 -0.53931,2.71254 -0.0876,3.01412 0.0182,3.54582 0.60859,3.05588 0.30264,-0.25117 0.39375,-0.96656 0.39375,-3.09191 z m -4.43879,-1.39659 c 0.0562,-0.92052 -0.0186,-1.19744 -0.32371,-1.19744 -0.29874,0 -0.41677,0.38523 -0.47732,1.55787 -0.0989,1.91461 0.17085,2.78551 0.50291,1.62394 0.12373,-0.43282 0.25788,-1.32578 0.29812,-1.98437 z m 2.94665,-3.08549 c 2.00974,-0.27546 1.3943,-0.60179 -0.95526,-0.50651 -2.55842,0.10375 -2.71008,0.14137 -1.65365,0.41018 1.10575,0.28137 1.22642,0.28582 2.60891,0.0963 z"
         id="path878"
         inkscape:connector-curvature="0" />
      <path
         style="fill:#5ad6e4;stroke-width:0.26458332"
         d="m 175.02188,227.98353 c -3.86431,-0.36239 -7.28094,-1.67052 -7.77795,-2.97795 -0.39075,-1.02788 -0.82101,-3.08334 -0.82101,-3.92213 0,-3.16247 2.43438,-7.80568 7.67303,-14.63514 1.05147,-1.37077 1.31957,-2.4662 1.32133,-5.39884 0.001,-2.07889 -0.0837,-2.57335 -0.55081,-3.20512 -1.29976,-1.75801 0.1654,-2.92207 3.94148,-3.13147 3.07911,-0.17076 5.29087,0.24586 6.07926,1.14511 0.68136,0.77716 0.59436,1.59675 -0.23266,2.19176 -0.42983,0.30925 -0.50454,0.70372 -0.50454,2.66396 0,2.9966 0.51012,4.64614 2.00396,6.47999 2.1936,2.69287 5.028,7.13423 5.91331,9.26585 0.48567,1.16939 0.93632,2.79289 1.01447,3.65469 0.14847,1.63735 -0.29299,4.15125 -0.90472,5.15192 -0.48439,0.79237 -2.09558,1.58274 -4.45832,2.18702 -2.3077,0.59021 -9.05374,0.87199 -12.69683,0.53035 z m 13.51261,-5.68219 c 0.33744,-0.51499 0.31887,-0.83476 -0.16028,-2.75993 -0.71764,-2.88341 -2.10324,-6.67161 -3.44421,-9.41639 -0.7195,-1.47272 -1.03017,-2.40955 -0.91716,-2.76564 0.12311,-0.38786 -0.0366,-0.73086 -0.57107,-1.22614 -0.73087,-0.67735 -0.74202,-0.7339 -0.74448,-3.77332 l -0.002,-3.08567 h -0.66146 c -0.58582,0 -0.6577,0.10589 -0.62861,0.92604 0.0181,0.50932 0.0642,2.258 0.10251,3.88594 l 0.0696,2.9599 0.8847,0.85748 c 0.99897,0.96825 1.55068,2.33858 1.31677,3.27057 -0.0994,0.396 0.22239,1.68252 0.87332,3.49167 0.56688,1.57556 1.09885,3.5901 1.18215,4.47677 0.0833,0.88667 0.38527,2.15756 0.67103,2.82421 0.43387,1.01218 0.61261,1.18775 1.08377,1.06454 0.31031,-0.0812 0.73595,-0.40966 0.94586,-0.73003 z m -15.48929,-2.12603 c 1.01869,-3.8697 1.86676,-6.48127 2.10471,-6.48127 0.11483,0 0.28382,-0.38695 0.37553,-0.8599 0.24076,-1.24164 0.24252,-1.32126 0.0454,-2.05598 -0.2347,-0.87467 1.4688,-3.16954 2.35278,-3.16954 0.32009,0 0.6569,-0.0749 0.74849,-0.16651 0.21525,-0.21526 -1.16764,-1.68557 -1.58535,-1.68557 -0.46344,0 -1.66797,1.67625 -1.66797,2.32118 0,0.30329 -0.20836,0.76028 -0.46302,1.01554 -0.25467,0.25525 -0.47032,0.59118 -0.47923,0.7465 -0.009,0.15532 -0.56199,1.4135 -1.22905,2.79595 -1.52776,3.16618 -2.70619,6.68424 -2.71597,8.10815 -0.005,0.72202 0.16771,1.29033 0.50537,1.66345 0.90395,0.99885 1.26283,0.6 2.00834,-2.232 z m 4.88144,-17.13075 c 0.0828,-0.47294 0.25833,-1.45521 0.38999,-2.18281 0.25688,-1.41968 0.0911,-1.82413 -0.68696,-1.67576 -0.60632,0.11563 -0.72883,0.87021 -0.4953,3.05083 0.1938,1.8097 0.55269,2.17559 0.79227,0.80774 z m 4.30514,-5.66155 c 1.58824,-0.19077 1.97954,-0.86749 0.52916,-0.91514 -2.45632,-0.0807 -6.34574,0.002 -6.48151,0.13772 -0.67811,0.67811 2.89448,1.14471 5.95235,0.77742 z"
         id="path876"
         inkscape:connector-curvature="0" />
      <path
         style="fill:#a6acac;stroke-width:0.26458332"
         d="m 175.02188,227.98353 c -3.86431,-0.36239 -7.28094,-1.67052 -7.77795,-2.97795 -0.39075,-1.02788 -0.82101,-3.08334 -0.82101,-3.92213 0,-3.16247 2.43438,-7.80568 7.67303,-14.63514 1.05147,-1.37077 1.31957,-2.4662 1.32133,-5.39884 0.001,-2.07889 -0.0837,-2.57335 -0.55081,-3.20512 -1.29976,-1.75801 0.1654,-2.92207 3.94148,-3.13147 3.07911,-0.17076 5.29087,0.24586 6.07926,1.14511 0.68136,0.77716 0.59436,1.59675 -0.23266,2.19176 -0.42983,0.30925 -0.50454,0.70372 -0.50454,2.66396 0,2.9966 0.51012,4.64614 2.00396,6.47999 2.1936,2.69287 5.028,7.13423 5.91331,9.26585 0.48567,1.16939 0.93632,2.79289 1.01447,3.65469 0.14847,1.63735 -0.29299,4.15125 -0.90472,5.15192 -0.48439,0.79237 -2.09558,1.58274 -4.45832,2.18702 -2.3077,0.59021 -9.05374,0.87199 -12.69683,0.53035 z m 13.77042,-2.63403 c 0.95952,-0.47237 1.6981,-0.90535 1.64128,-0.96217 -0.0568,-0.0568 -1.46411,0.37176 -3.1273,0.9524 -2.85201,0.99567 -2.94535,1.05039 -1.64127,0.96216 0.87225,-0.059 2.02675,-0.4106 3.12729,-0.95239 z m -0.21973,-2.71532 c 0.55077,-0.4672 1.05027,-0.88318 1.11002,-0.92442 0.0597,-0.0412 -0.0761,-0.28407 -0.30193,-0.53962 -0.2258,-0.25555 -0.49306,-1.00042 -0.59391,-1.65527 -0.10085,-0.65484 -0.35193,-1.77778 -0.55797,-2.49542 -0.44148,-1.53772 -0.47429,-2.09533 -0.11002,-1.8702 0.49508,0.30598 0.2662,-0.78944 -0.50602,-2.42177 -0.50849,-1.07484 -1.01801,-1.7491 -1.49955,-1.98437 -0.91506,-0.44709 -1.77261,-2.49712 -1.19413,-2.85464 0.27638,-0.17081 0.22913,-0.26328 -0.20493,-0.40104 -0.31027,-0.0985 -0.56412,-0.29577 -0.56412,-0.43844 0,-0.14266 -0.3263,-0.56179 -0.72511,-0.93139 -0.71009,-0.65809 -0.72517,-0.73585 -0.72761,-3.75224 -0.002,-2.78859 -0.049,-3.08936 -0.49362,-3.17663 -0.27012,-0.053 -0.58602,0.004 -0.70202,0.12685 -0.11599,0.12279 -0.12888,1.652 -0.0286,3.39825 0.25483,4.43956 0.2795,4.36563 -1.45663,4.36563 -1.19143,0 -1.52076,-0.10885 -2.00124,-0.66146 -0.75292,-0.86593 -1.13,-0.83436 -1.86085,0.15581 -0.33178,0.4495 -0.99019,0.97921 -1.46313,1.17713 -0.9776,0.40911 -1.16457,0.93156 -0.26458,0.73932 0.55197,-0.1179 0.5616,-0.0995 0.13229,0.25237 -0.25466,0.20875 -0.46302,0.68681 -0.46302,1.06236 0,0.37555 -0.13236,0.76462 -0.29412,0.8646 -0.56459,0.34893 -2.45756,5.16786 -3.29493,8.38785 -0.66144,2.5435 0.0586,4.1616 1.85186,4.1616 0.51465,0 0.67886,-0.13528 0.67886,-0.55929 0,-0.30761 0.21905,-0.99222 0.48678,-1.52135 0.26774,-0.52914 0.75505,-1.79551 1.08292,-2.81415 0.32786,-1.01865 0.85295,-2.2688 1.16685,-2.77813 l 0.57074,-0.92604 0.0754,3.03873 c 0.0415,1.6713 0.18525,3.14858 0.31952,3.28285 0.51334,0.51334 1.0108,-0.45498 1.44977,-2.822 0.75181,-4.05394 0.8036,-4.16104 2.01229,-4.16104 0.74612,0 1.03782,-0.11155 1.03782,-0.39687 0,-0.21828 0.16401,-0.39688 0.36448,-0.39688 0.55365,0 0.95345,0.62336 0.7931,1.23656 -0.19672,0.75227 0.90052,3.20711 1.5216,3.40423 0.69145,0.21946 1.41349,1.96263 1.05477,2.54647 -0.21162,0.34443 -0.13607,0.52852 0.34672,0.84485 0.36587,0.23973 0.6892,0.78777 0.79384,1.34556 0.14455,0.77049 0.29261,0.94108 0.81681,0.94108 0.35215,0 1.09089,-0.38225 1.64166,-0.84944 z m -10.12068,-11.0723 c -0.0976,-0.15785 -0.4985,-0.2086 -0.91875,-0.1163 -0.60989,0.13396 -0.77884,0.0592 -0.92792,-0.41048 -0.24547,-0.77342 0.60381,-2.63273 1.20257,-2.63273 0.25113,0 0.59407,-0.16565 0.76209,-0.36811 0.41482,-0.49982 2.60193,-0.81126 3.05524,-0.43505 0.19387,0.16089 0.41607,0.67532 0.49377,1.14316 0.0777,0.46785 0.22332,1.17873 0.32358,1.57975 0.28941,1.1575 -0.22214,1.51984 -2.1457,1.51984 -0.91948,0 -1.74968,-0.12604 -1.84488,-0.28008 z m 0.0812,-2.05156 c 0.0576,-0.17281 -0.0838,-0.3142 -0.31419,-0.3142 -0.23041,0 -0.41892,0.18852 -0.41892,0.41893 0,0.46723 0.56958,0.38586 0.73311,-0.10473 z m -0.60648,-6.46576 c 0.0828,-0.47294 0.25833,-1.45521 0.38999,-2.18281 0.25688,-1.41968 0.0911,-1.82413 -0.68696,-1.67576 -0.60632,0.11563 -0.72883,0.87021 -0.4953,3.05083 0.1938,1.8097 0.55269,2.17559 0.79227,0.80774 z m 4.30514,-5.66155 c 1.58824,-0.19077 1.97954,-0.86749 0.52916,-0.91514 -2.45632,-0.0807 -6.34574,0.002 -6.48151,0.13772 -0.67811,0.67811 2.89448,1.14471 5.95235,0.77742 z"
         id="path874"
         inkscape:connector-curvature="0" />
      <path
         style="fill:#34cbd9;stroke-width:0.26458332"
         d="m 175.55105,227.70205 c -4.65395,-0.62949 -7.14177,-1.96035 -8.26959,-4.42383 -0.64981,-1.41937 -0.66787,-1.57916 -0.37295,-3.29902 0.37777,-2.203 1.21362,-4.23923 2.93974,-7.16161 1.40509,-2.37888 3.66721,-5.00828 3.87955,-4.50945 0.0709,0.16645 0.39101,0.24691 0.71145,0.1788 0.54136,-0.11507 0.54983,-0.0969 0.11961,0.25569 -0.25466,0.20875 -0.46302,0.68681 -0.46302,1.06236 0,0.37555 -0.13236,0.76462 -0.29412,0.8646 -0.56459,0.34893 -2.45756,5.16786 -3.29493,8.38785 -0.66144,2.5435 0.0586,4.1616 1.85186,4.1616 0.51465,0 0.67886,-0.13528 0.67886,-0.55929 0,-0.30761 0.21905,-0.99222 0.48678,-1.52135 0.26774,-0.52914 0.75505,-1.79551 1.08292,-2.81415 0.32786,-1.01865 0.85295,-2.2688 1.16685,-2.77813 l 0.57074,-0.92604 0.0754,3.03873 c 0.0415,1.6713 0.18525,3.14858 0.31952,3.28285 0.51334,0.51334 1.0108,-0.45498 1.44977,-2.822 0.75181,-4.05394 0.8036,-4.16104 2.01229,-4.16104 0.74612,0 1.03782,-0.11155 1.03782,-0.39687 0,-0.21828 0.16401,-0.39688 0.36448,-0.39688 0.55365,0 0.95345,0.62336 0.7931,1.23656 -0.19672,0.75227 0.90052,3.20711 1.5216,3.40423 0.69145,0.21946 1.41349,1.96263 1.05477,2.54647 -0.21162,0.34443 -0.13607,0.52852 0.34672,0.84485 0.36587,0.23973 0.6892,0.78777 0.79384,1.34556 0.14455,0.77049 0.29261,0.94108 0.81681,0.94108 0.35215,0 1.09089,-0.38225 1.64166,-0.84944 0.55077,-0.4672 1.05027,-0.88318 1.11002,-0.92442 0.0597,-0.0412 -0.0761,-0.28407 -0.30193,-0.53962 -0.2258,-0.25555 -0.49306,-1.00042 -0.59391,-1.65527 -0.10085,-0.65484 -0.35193,-1.77778 -0.55797,-2.49542 -0.44148,-1.53772 -0.47429,-2.09533 -0.11002,-1.8702 0.49783,0.30768 0.26445,-0.79314 -0.51946,-2.45017 -0.53045,-1.12127 -0.99811,-1.73798 -1.44752,-1.90884 -0.62033,-0.23585 -1.47261,-1.70279 -1.47261,-2.53464 0,-0.75071 1.08581,-0.7194 1.90416,0.0549 1.34671,1.27424 4.3839,6.11656 5.2612,8.38815 2.84124,7.35679 -0.55714,10.84223 -10.86952,11.14798 -1.96454,0.0582 -4.40532,-0.007 -5.42396,-0.1446 z m 13.24125,-2.35255 c 0.95952,-0.47237 1.6981,-0.90535 1.64128,-0.96217 -0.0568,-0.0568 -1.46411,0.37176 -3.1273,0.9524 -2.85201,0.99567 -2.94535,1.05039 -1.64127,0.96216 0.87225,-0.059 2.02675,-0.4106 3.12729,-0.95239 z m -10.34041,-13.78762 c -0.0976,-0.15785 -0.4985,-0.2086 -0.91875,-0.1163 -0.60989,0.13396 -0.77884,0.0592 -0.92792,-0.41048 -0.24547,-0.77342 0.60381,-2.63273 1.20257,-2.63273 0.25113,0 0.59407,-0.16565 0.76209,-0.36811 0.41482,-0.49982 2.60193,-0.81126 3.05524,-0.43505 0.19387,0.16089 0.41607,0.67532 0.49377,1.14316 0.0777,0.46785 0.22332,1.17873 0.32358,1.57975 0.28941,1.1575 -0.22214,1.51984 -2.1457,1.51984 -0.91948,0 -1.74968,-0.12604 -1.84488,-0.28008 z m 0.0812,-2.05156 c 0.0576,-0.17281 -0.0838,-0.3142 -0.31419,-0.3142 -0.23041,0 -0.41892,0.18852 -0.41892,0.41893 0,0.46723 0.56958,0.38586 0.73311,-0.10473 z"
         id="path872"
         inkscape:connector-curvature="0" />
      <path
         style="fill:#2892a5;stroke-width:0.26458332"
         d="m 175.55105,227.70205 c -4.65395,-0.62949 -7.14177,-1.96035 -8.26959,-4.42383 -0.64981,-1.41937 -0.66787,-1.57916 -0.37295,-3.29902 0.3772,-2.19968 1.21443,-4.24141 2.92642,-7.13658 1.23679,-2.09157 3.29493,-4.70483 3.70539,-4.70483 0.27594,0 0.13783,2.11473 -0.14003,2.14431 -0.71803,0.0764 -1.24305,0.78286 -2.5799,3.4713 -0.81592,1.64084 -1.56061,3.34053 -1.65487,3.7771 l -0.17139,0.79375 0.69773,-0.64046 c 0.38375,-0.35224 0.75332,-0.58485 0.82127,-0.5169 0.0679,0.0679 -0.007,0.91044 -0.16621,1.87219 -0.15937,0.96176 -0.21147,2.0606 -0.11577,2.44187 0.25239,1.00561 1.10055,1.73809 2.01261,1.73809 0.62716,0 0.79375,-0.11533 0.79375,-0.54952 0,-0.75282 1.40199,-2.09631 2.18759,-2.09631 0.35245,0 0.85354,0.23506 1.11354,0.52236 0.47069,0.5201 0.47592,0.5201 1.20633,0 0.93943,-0.66893 3.85479,-0.70958 6.41079,-0.0894 1.56052,0.37865 1.8094,0.52297 1.94033,1.12517 0.0826,0.37995 0.19605,0.83964 0.25209,1.02154 0.17925,0.58186 1.33776,0.35527 2.36745,-0.46302 0.54934,-0.43656 1.16776,-0.79375 1.37426,-0.79375 0.30665,0 0.29271,-0.14007 -0.0761,-0.76441 -0.43476,-0.736 -0.42928,-0.80043 0.1476,-1.73384 0.44161,-0.71455 0.55603,-1.19182 0.43517,-1.81528 -0.24653,-1.27165 -3.04532,-6.76631 -3.59689,-7.0615 -0.42084,-0.22523 -1.59133,-2.2343 -1.59133,-2.73142 0,-0.0996 0.16474,-0.18105 0.36609,-0.18105 1.013,0 4.98751,5.77319 6.28419,9.12813 2.82714,7.31474 -0.59179,10.80475 -10.88361,11.1099 -1.96454,0.0582 -4.40532,-0.007 -5.42396,-0.1446 z m 11.23683,-1.48765 c 1.78116,-0.49 3.0882,-1.15667 4.04285,-2.0621 0.76299,-0.72365 1.0163,-1.23765 0.32872,-0.66701 -0.21938,0.18207 -2.33274,0.95527 -4.69635,1.7182 -2.64461,0.85364 -4.09395,1.43772 -3.7683,1.51861 0.71253,0.17699 2.33643,-0.0244 4.09308,-0.5077 z m -9.87098,-4.11984 c -0.0734,-0.1819 -0.13345,-0.0331 -0.13345,0.33073 0,0.3638 0.0601,0.51263 0.13345,0.33073 0.0734,-0.1819 0.0734,-0.47956 0,-0.66146 z m 1.46652,-10.8487 c -0.19342,-0.23305 -0.16653,-0.52772 0.0905,-0.99218 0.20111,-0.36338 0.36987,-0.92857 0.37502,-1.25599 0.0102,-0.64557 0.19158,-0.72297 0.79709,-0.34007 0.26609,0.16827 0.53521,0.11649 0.84322,-0.16226 0.48703,-0.44075 1.0149,-0.28572 1.0149,0.29806 0,0.1979 0.19903,0.7066 0.44228,1.13045 0.73095,1.27361 0.36514,1.6535 -1.5922,1.6535 -1.03591,0 -1.80275,-0.12899 -1.97083,-0.33151 z m -1.50946,-0.19765 c -0.19293,-0.31218 0.0573,-0.79375 0.41249,-0.79375 0.13694,0 0.24897,0.23812 0.24897,0.52916 0,0.55803 -0.38493,0.71201 -0.66146,0.26459 z"
         id="path870"
         inkscape:connector-curvature="0" />
      <path
         style="fill:#1f7689;stroke-width:0.26458332"
         d="m 173.7474,227.31112 c -3.80194,-0.71539 -6.0293,-2.23201 -6.43083,-4.37876 l -0.16907,-0.90395 0.63292,0.91489 c 1.00324,1.45018 2.72064,2.58351 5.068,3.3444 1.89275,0.61354 2.74677,0.72155 6.61241,0.83634 3.64977,0.10837 4.77872,0.0495 6.35,-0.33085 1.89219,-0.45808 4.76066,-1.72474 5.08151,-2.24389 0.0915,-0.14799 0.40681,-0.3978 0.70076,-0.55512 0.47083,-0.25198 0.50347,-0.22852 0.27414,0.19702 -0.66124,1.22701 -2.18898,2.16239 -4.6819,2.86656 -2.24068,0.63291 -10.58476,0.79024 -13.43794,0.25336 z m 0.27545,-2.25529 c -1.85916,-0.27063 -3.71091,-0.68735 -4.115,-0.92605 -0.60343,-0.35646 -2.38919,-2.94584 -2.11113,-3.06117 0.0448,-0.0186 0.31954,-0.0641 0.61058,-0.10118 0.29104,-0.0371 0.68777,-0.11118 0.88162,-0.16467 0.20925,-0.0577 0.478,0.27526 0.66145,0.81962 0.36272,1.07623 1.77313,2.12583 2.85664,2.12583 0.60208,0 0.78144,-0.14318 0.91151,-0.72761 0.32714,-1.47 0.4094,-1.60433 1.08653,-1.77428 0.93121,-0.23372 1.09872,0.006 1.19386,1.70566 0.0666,1.19023 0.17376,1.47033 0.59298,1.55012 0.66784,0.12712 1.20812,-0.63709 1.20812,-1.70887 0,-1.6175 0.10974,-1.69086 2.5294,-1.69086 2.44157,0 3.55601,0.35044 3.55601,1.1182 0,1.18562 0.46772,1.52764 2.08906,1.52764 1.21694,0 1.75109,-0.14239 2.53838,-0.67667 0.93245,-0.63277 1.72256,-0.70615 1.72256,-0.15997 0,0.441 -3.17615,1.6206 -5.80735,2.15681 -3.17547,0.64711 -5.89589,0.64383 -10.40522,-0.0126 z m 17.06285,-3.4736 c -0.24213,-0.24212 -0.21208,-0.42638 0.13143,-0.80596 0.63037,-0.69654 0.2059,-2.512 -1.47719,-6.31787 -1.24966,-2.82577 -1.28296,-2.95568 -0.53502,-2.08728 1.82864,2.12319 3.97732,7.6307 3.52859,9.04451 -0.17313,0.54549 -1.1683,0.64611 -1.64781,0.1666 z m -24.02594,-2.00121 c 0.17161,-1.28567 2.5383,-6.39646 3.22657,-6.96768 0.21227,-0.17617 -0.0118,0.61022 -0.5045,1.77097 -0.48748,1.14832 -1.22513,3.07012 -1.63924,4.27067 -0.83968,2.43434 -1.34143,2.86344 -1.08283,0.92604 z m 11.79858,-8.64949 c 0,-0.20969 0.10659,-0.44714 0.23686,-0.52765 0.27236,-0.16833 0.60077,0.51225 0.36227,0.75075 -0.2839,0.2839 -0.59913,0.16652 -0.59913,-0.2231 z m 2.24896,-0.14791 c 0.0899,-0.14552 0.27555,-0.26458 0.41249,-0.26458 0.13693,0 0.24897,0.11906 0.24897,0.26458 0,0.14552 -0.18562,0.26459 -0.41249,0.26459 -0.22687,0 -0.33891,-0.11907 -0.24897,-0.26459 z m 5.20641,-1.87999 -0.53743,-1.08624 0.66637,0.62322 c 0.92663,0.86663 1.2734,1.54926 0.78702,1.54926 -0.20819,0 -0.62037,-0.48881 -0.91596,-1.08624 z"
         id="path868"
         inkscape:connector-curvature="0" />
      <path
         style="fill:#236979;stroke-width:0.26458332"
         d="m 172.77292,227.0919 c -2.03091,-0.44118 -3.86613,-1.39238 -4.6374,-2.40357 -0.99224,-1.3009 -0.80266,-1.31286 0.90333,-0.057 1.37585,1.01285 2.56968,1.56379 5.45386,2.51693 1.12005,0.37015 0.0879,0.33631 -1.71979,-0.0564 z m 14.16878,-0.39576 c 1.7565,-0.65545 2.96775,-1.27792 4.02133,-2.06659 1.04784,-0.78439 1.13463,-0.44969 0.13229,0.51018 -0.92949,0.8901 -2.80125,1.71831 -4.31072,1.9074 l -1.17939,0.14774 z m -8.72869,-2.12808 c -0.10194,-0.16495 -0.10498,-0.94313 -0.007,-1.72929 l 0.17859,-1.42939 2.28467,0.0449 2.28467,0.0449 0.2245,1.40969 c 0.12347,0.77533 0.15124,1.48296 0.0617,1.5725 -0.321,0.321 -4.83445,0.39876 -5.02737,0.0866 z m -3.53747,-0.27222 c -0.6903,-0.17034 -0.69008,-0.16958 -0.44676,-1.60979 0.15018,-0.88894 0.27836,-1.05451 0.81636,-1.05451 0.57507,0 0.6378,0.11123 0.63415,1.12448 -0.005,1.397 -0.22363,1.73233 -1.00375,1.53982 z m -5.07762,-1.60597 c 0,-0.14552 0.11907,-0.26458 0.26459,-0.26458 0.14552,0 0.26458,0.11906 0.26458,0.26458 0,0.14552 -0.11906,0.26459 -0.26458,0.26459 -0.14552,0 -0.26459,-0.11907 -0.26459,-0.26459 z m 22.61211,-2.44739 c -0.46904,-1.23649 -1.40122,-4.56419 -1.3054,-4.66001 0.21146,-0.21146 1.49956,2.88709 1.64216,3.95026 0.13282,0.99022 -0.069,1.41559 -0.33676,0.70975 z m -24.98931,-0.95911 c -0.004,-0.62702 1.30867,-3.83564 1.49359,-3.65072 0.13079,0.13079 -0.89701,3.38062 -1.2278,3.88222 -0.21074,0.31955 -0.26252,0.27445 -0.26579,-0.2315 z"
         id="path866"
         inkscape:connector-curvature="0" />
    </g>
  </g>
</svg>
